Coordinates
version=1
nRows=14
nColumns=24
inDegrees=yes

Units are S.I. units (second, meters, Newtons, ...)
Angles are in degrees.

endheader
time	pelvis_tilt	pelvis_list	pelvis_rotation	pelvis_tx	pelvis_ty	pelvis_tz	hip_flexion_r	hip_adduction_r	hip_rotation_r	knee_angle_r	ankle_angle_r	subtalar_angle_r	mtp_angle_r	hip_flexion_l	hip_adduction_l	hip_rotation_l	knee_angle_l	ankle_angle_l	subtalar_angle_l	mtp_angle_l	lumbar_extension	lumbar_bending	lumbar_rotation
      0.72100000	      3.02715046	      3.98384416	     -0.34236721	     -0.47994639	      1.02151281	      0.28619578	      9.47554017	     -0.64305694	     -3.08469413	    -19.68165022	      7.26843719	     -6.03009660	     11.04990983	     13.52128058	      2.37589484	     -7.09013037	    -63.82876233	      1.82886989	    -17.09062232	      3.72763423	    -12.99525853	     -4.67304769	      4.37754479
      0.72516667	      2.98366668	      4.10681772	     -0.48580003	     -0.47472099	      1.02232994	      0.28636627	      9.07524072	     -0.76667859	     -3.00492838	    -19.40960539	      7.34972535	     -5.94269381	     11.05540616	     14.00944016	      2.52754530	     -7.12336085	    -63.21316679	      2.10714881	    -17.04335715	      3.66899024	    -12.96203156	     -4.83570154	      4.44497733
      0.72933333	      2.99057940	      4.22237665	     -0.64301106	     -0.46950081	      1.02316320	      0.28650361	      8.62947431	     -0.89458284	     -2.95528159	    -19.15904333	      7.53369274	     -5.71555237	     11.07528090	     14.42392954	      2.66835449	     -7.16367055	    -62.53485079	      2.38048536	    -16.89494962	      3.50147208	    -12.98240741	     -4.95735898	      4.72407672
      0.73350000	      2.96698458	      4.34959912	     -0.80375467	     -0.46429350	      1.02393190	      0.28661810	      8.22164736	     -1.03691276	     -2.89753367	    -18.90742789	      7.62111534	     -5.57183617	     11.08752835	     14.85517479	      2.82580456	     -7.20255498	    -61.79034304	      2.63980816	    -16.75239010	      3.42069661	    -12.96305221	     -5.09511574	      4.85602427
      0.73766667	      2.95178021	      4.44882013	     -0.95790764	     -0.45907801	      1.02465128	      0.28672107	      7.79639765	     -1.15406105	     -2.86321329	    -18.64350829	      7.79027522	     -5.33433622	     11.11332907	     15.26757137	      2.94171041	     -7.24213980	    -61.01217973	      2.90370446	    -16.52593761	      3.28366946	    -12.96482807	     -5.21319093	      5.12312303
      0.74183333	      2.91327891	      4.56828542	     -1.11919985	     -0.45385652	      1.02532240	      0.28682153	      7.39864025	     -1.29317975	     -2.81425128	    -18.37591186	      7.86696351	     -5.18583256	     11.12619625	     15.68246897	      3.07971070	     -7.28662921	    -60.15795907	      3.11948281	    -16.30728906	      3.23200328	    -12.92751336	     -5.35771385	      5.24291977
      0.74600000	      2.90312232	      4.64911131	     -1.27973975	     -0.44863496	      1.02595034	      0.28690097	      6.96880041	     -1.39618416	     -2.78709992	    -18.11365258	      8.05319875	     -4.94299158	     11.15491821	     16.05686986	      3.16448698	     -7.33836521	    -59.28115144	      3.36669662	    -15.99710671	      3.13667230	    -12.92671346	     -5.44316239	      5.51839141
      0.75016667	      2.86943939	      4.73897591	     -1.44507530	     -0.44342668	      1.02649790	      0.28697157	      6.57001436	     -1.51043688	     -2.75266591	    -17.85438637	      8.18878211	     -4.73865253	     11.18179667	     16.44003042	      3.25674506	     -7.39551501	    -58.34659856	      3.57577866	    -15.68558714	      3.06002615	    -12.89758501	     -5.54656129	      5.72608155
      0.75433333	      2.83159937	      4.82646945	     -1.60830814	     -0.43820412	      1.02702202	      0.28702387	      6.17009991	     -1.62328229	     -2.71480266	    -17.58310497	      8.27102667	     -4.56773236	     11.19937801	     16.80582439	      3.34775694	     -7.44517476	    -57.35146739	      3.73550976	    -15.37152004	      3.02129302	    -12.85884994	     -5.64121659	      5.87822895
      0.75850000	      2.80949176	      4.89142688	     -1.77211782	     -0.43298364	      1.02750118	      0.28708236	      5.74839063	     -1.71335004	     -2.68369612	    -17.30410909	      8.40210710	     -4.36591793	     11.22046565	     17.14051466	      3.40291042	     -7.50586402	    -56.32476114	      3.90878334	    -15.00528000	      2.98494986	    -12.84463496	     -5.71557890	      6.08966925
      0.76266667	      2.78947671	      4.95545227	     -1.93742825	     -0.42777205	      1.02793378	      0.28712498	      5.32714782	     -1.80544080	     -2.65475639	    -17.02890577	      8.53507131	     -4.16920056	     11.24193022	     17.45446021	      3.45566984	     -7.56977476	    -55.24847939	      4.05084817	    -14.64943609	      2.95424709	    -12.83127841	     -5.78422278	      6.30342337
      0.76683333	      2.78233308	      4.99010102	     -2.09594809	     -0.42256064	      1.02832234	      0.28714829	      4.88173890	     -1.86714590	     -2.63089787	    -16.73726924	      8.70578060	     -3.95077752	     11.27414678	     17.74141386	      3.47381051	     -7.62796943	    -54.14705467	      4.20429921	    -14.28765979	      2.91371202	    -12.83849369	     -5.82096935	      6.58281587
      0.77100000	      2.72847230	      5.03892350	     -2.25538742	     -0.41734519	      1.02860594	      0.28717189	      4.49583559	     -1.94300393	     -2.59728741	    -16.45844402	      8.79479057	     -3.79651946	     11.29223052	     18.05681596	      3.50448311	     -7.69024271	    -52.98401879	      4.26187784	    -13.94689794	      2.89634084	    -12.78244300	     -5.87125496	      6.73583010
      0.77516667	      2.68841006	      5.06363645	     -2.41427530	     -0.41212500	      1.02885017	      0.28718636	      4.08929867	     -1.99407665	     -2.56272256	    -16.17247044	      8.92524857	     -3.62174354	     11.31330349	     18.34010353	      3.50384466	     -7.75748106	    -51.79245516	      4.33440723	    -13.58168564	      2.88183410	    -12.74651043	     -5.89815587	      6.95171081
